<svg width="883" height="613" viewBox="0 0 883 613" fill="none" xmlns="http://www.w3.org/2000/svg">
<g clip-path="url(#clip0_1_2)">
<path d="M883.862 163.377C814.844 204.394 733.123 221.109 656.069 200.499C617.885 190.285 582.004 171.873 544.551 158.837C507.1 145.801 466.347 138.246 428.629 150.336C390.909 162.424 357.593 198.483 356.627 241.28C355.032 311.958 435.928 366.141 423.157 435.46C417.244 467.548 392.216 491.064 366.874 508.671C341.534 526.275 313.581 541.367 295.104 567.185C285.465 580.653 279.332 596.42 276.422 613H616.603C634.945 587.085 654.768 563.175 680.675 546.924C724.476 519.445 775.722 519.593 827.302 519.742C846.227 519.797 865.198 519.853 883.862 518.542V163.377Z" fill="#A9CEB2"/>
<path d="M393.998 613H390.275C391.221 611.039 392.262 609.14 393.401 607.318C393.558 609.212 393.759 611.106 393.998 613ZM466.62 463.789C463.107 459.048 459.454 454.364 455.657 449.833C457.931 448.006 460.363 446.314 462.891 444.753C463.038 448.036 463.446 451.303 464.096 454.467C464.748 457.645 465.604 460.748 466.62 463.789ZM526.6 451.049C525.744 450.454 524.923 449.93 524.455 449.569C521.078 446.976 517.584 444.567 513.97 442.389C511.419 440.853 508.811 439.43 506.147 438.141C503.924 434.738 501.55 431.501 499.006 428.481C504.252 425.92 509.279 422.979 513.661 419.47C518.178 429.89 522.491 440.418 526.6 451.049Z" fill="#BADAC2"/>
<path d="M883.862 445.978C880.536 445.31 877.218 444.579 873.904 443.807C877.294 441.047 880.624 438.195 883.862 435.241V445.978ZM528.959 442.876C525.552 434.261 522.012 425.716 518.338 417.24C519.253 415.966 520.011 414.328 520.665 412.611C524.246 408.225 526.867 403.111 528.06 397.059C531.127 381.494 522.661 365.61 511.439 355.405C507.162 351.517 502.508 348.224 497.687 345.196C498.141 343.349 498.53 341.484 498.852 339.605C499.78 334.197 500.088 328.285 497.59 323.503C496.368 321.167 494.066 319.145 491.728 319.145C491.218 319.145 490.705 319.24 490.203 319.451C487.377 320.634 486.58 324.521 486.345 327.807C486.096 331.323 486.021 334.854 486.104 338.378C482.593 336.378 479.077 334.379 475.636 332.262C473.158 327.965 470.643 323.692 468.091 319.44L468.106 319.424C470.369 316.627 471.697 311.56 472.838 308.095C474.079 304.328 475.045 300.453 475.719 296.52C476.648 291.112 476.955 285.202 474.457 280.42C473.236 278.083 470.933 276.06 468.596 276.06C468.085 276.06 467.573 276.155 467.071 276.366C464.243 277.549 463.446 281.436 463.213 284.724C462.858 289.709 462.857 294.723 463.156 299.713C463.422 304.201 463.935 308.67 464.646 313.1C464.682 313.322 464.715 313.61 464.75 313.926C458.006 302.887 451.016 292.006 443.764 281.301C443.264 280.562 442.49 280.171 441.707 280.171C441.18 280.171 440.651 280.346 440.195 280.714C439.057 281.625 438.816 283.365 439.654 284.602C448.711 297.972 457.368 311.609 465.622 325.495C448.897 313.043 434.69 296.142 428.371 275.343C421.045 251.232 426.491 221.634 445.134 206.375C454.289 198.882 465.415 195.633 476.839 195.633C489.294 195.633 502.104 199.496 513.094 205.942C534.169 218.299 550.264 238.463 566.628 257.481C566.857 257.746 567.086 258.012 567.316 258.278C564.623 262.163 562.431 266.28 561.448 270.889C558.77 283.457 565.824 296.317 564.665 309.156C562.644 331.52 537.343 344.747 534.95 367.069C533.199 383.437 544.617 399.413 541.382 415.51C539.42 425.276 532.259 433.88 528.959 442.876Z" fill="#BADAC2"/>
<path d="M530.542 493.62C528.608 488.515 526.924 484.272 526.03 481.632C523.056 472.843 519.663 463.894 515.651 455.368C516.033 455.417 516.417 455.46 516.801 455.5C518.979 455.731 521.751 456.171 524.326 456.171C525.543 456.171 526.716 456.072 527.763 455.806C527.763 455.81 527.765 455.811 527.765 455.813C528.401 458.57 529.581 460.922 531.13 463.008C533.07 468.259 534.958 473.533 536.799 478.832C534.456 483.602 532.454 488.58 530.542 493.62ZM834.531 390.016C834.704 389.443 834.864 388.865 835.009 388.278C835.137 387.771 835.252 387.263 835.357 386.755C837.076 381.292 838.397 375.76 839.19 370.195C839.358 369.021 839.439 367.87 839.441 366.743C839.447 362.101 838.1 357.893 835.868 354.454C837.638 353.282 839.361 352.024 841.027 350.683C845.089 347.411 849.014 343.314 850.178 337.96C850.868 334.772 850.096 330.734 847.306 329.514C846.755 329.273 846.196 329.165 845.637 329.165C843.345 329.165 841.045 330.974 839.253 332.769C835.874 336.157 832.737 339.827 829.832 343.699C829.018 344.783 828.226 345.885 827.449 347.002C827.276 346.918 827.099 346.838 826.924 346.761C826.703 346.315 826.481 345.87 826.256 345.429C830.213 330.857 833.795 316.164 836.998 301.364C840.207 300.671 843.886 298.293 846.622 296.752C849.886 294.917 853.018 292.795 855.972 290.416C860.036 287.147 863.959 283.047 865.121 277.693C865.47 276.095 865.448 274.281 864.988 272.718C871.341 271.427 877.627 269.66 883.862 267.506V357.549C878.627 358.741 873.508 360.604 868.72 363.018C855.866 369.501 844.862 379.339 834.531 390.016ZM804.816 346.333C808.793 342.473 812.77 338.613 816.746 334.753C818.377 336.809 820.259 339.131 822.223 340.654C821.865 341.99 821.504 343.326 821.14 344.66C815.724 345.457 810.276 346.021 804.816 346.333ZM824.308 332.699C823.52 328.844 822.581 325.024 821.455 321.271C820.029 316.517 818.318 311.864 816.289 307.379C814.961 304.439 812.912 301.179 809.917 301.179C809.897 301.179 809.877 301.179 809.855 301.179C809.616 301.182 809.383 301.207 809.155 301.252C809.097 300.315 809.066 299.37 809.065 298.424C809.065 297.28 809.109 296.13 809.201 294.975C809.826 287.121 812.667 279.443 815.01 271.83C821.483 273.459 827.85 274.45 834.128 274.883C834.56 275.216 834.996 275.508 835.433 275.749C835.937 276.026 836.327 276.138 836.637 276.138C836.715 276.138 836.789 276.132 836.857 276.118C833.295 295.154 829.112 314.022 824.308 332.699ZM673.612 328.533C665.035 322.493 656.511 315.942 650.74 307.265C653.769 306.978 656.764 306.46 659.686 305.704C660.396 306.518 661.136 307.299 661.885 308.048C664.593 310.753 667.503 313.222 670.572 315.422C671.966 316.423 673.614 317.707 675.327 318.842C674.751 322.077 674.242 325.342 673.612 328.533ZM677.484 309.193C676.29 306.881 675.028 304.611 673.695 302.389C673.311 301.752 672.924 301.119 672.53 300.49C676.271 298.322 679.726 295.64 682.76 292.427C682.651 294.47 682.534 296.511 682.411 298.553C682.075 299.029 681.751 299.517 681.439 300.022C679.686 302.85 678.441 305.948 677.484 309.193ZM707.75 302.379C705.21 296.585 702.671 290.789 700.131 284.995C695.714 287.15 691.492 289.539 687.863 292.631C687.992 290.192 688.112 287.752 688.221 285.313C689.095 283.897 689.896 282.429 690.647 280.924C692.923 279.198 695.126 276.78 696.899 275.015C699.612 272.317 702.129 269.383 704.415 266.249C707.555 261.939 710.363 256.87 710.208 251.37C710.163 249.799 709.746 248.134 708.992 246.783C715.52 241.099 723.953 238.719 732.56 238.719C735.058 238.719 737.573 238.92 740.057 239.299C738.998 242.793 738.193 246.447 737.278 250.048C741.741 256.111 746.206 262.173 750.671 268.235C744.914 265.496 739.074 263.542 733.222 261.7C732.919 262.293 732.611 262.882 732.27 263.452C726.97 272.349 717.923 276.842 708.634 281.067C708.339 288.171 708.046 295.276 707.75 302.379ZM838.998 291.886C840.138 286.317 841.223 280.736 842.255 275.139C845.57 275.117 848.865 274.946 852.135 274.639C849.533 277.416 847.082 280.361 844.779 283.434C842.736 286.155 840.816 288.982 838.998 291.886Z" fill="#BADAC2"/>
<mask id="mask0_1_2" style="mask-type:luminance" maskUnits="userSpaceOnUse" x="275" y="78" width="608" height="535">
<path d="M808.043 196.507C794.911 149.331 762.838 108.634 721.75 87.8044C709.35 81.5171 695.609 76.8998 682.101 79.2402C668.333 81.6274 656.398 90.9689 646.414 101.557C625.66 123.562 611.364 152.374 604.948 183.088C584.55 174.89 564.326 166.043 543.622 158.837C506.171 145.801 465.417 138.246 427.699 150.336C389.98 162.424 356.663 198.483 355.698 241.28C354.102 311.958 360.03 319.014 347.259 388.333C341.348 420.423 391.286 491.064 365.945 508.671C340.605 526.275 312.652 541.367 294.175 567.185C284.536 580.653 278.402 596.42 275.493 613H615.674C634.016 587.085 653.839 563.175 679.745 546.924C723.547 519.445 774.793 519.593 826.372 519.742C845.297 519.797 864.269 519.853 882.933 518.542V163.377C859.233 177.461 834.035 188.68 808.043 196.507Z" fill="white"/>
</mask>
<g mask="url(#mask0_1_2)">
<path d="M546.912 434.027C543.92 434.549 542.401 438.17 541.548 441.334C540.252 446.132 539.297 451.037 538.638 455.985C538.097 460.052 537.767 464.15 537.6 468.255C531.399 450.985 524.663 433.976 517.408 417.24C519.466 414.375 520.726 409.669 521.809 406.382C523.049 402.614 524.017 398.741 524.691 394.808C525.618 389.4 525.927 383.488 523.427 378.706C521.941 375.859 518.85 373.48 516.042 374.653C513.215 375.837 512.417 379.722 512.185 383.01C511.829 387.997 511.829 393.009 512.127 398C512.312 401.11 512.621 404.209 513.026 407.293C506.091 391.845 498.709 376.639 490.883 361.694C492.799 358.804 494.001 354.336 495.042 351.179C496.281 347.413 497.247 343.538 497.923 339.605C498.85 334.197 499.159 328.285 496.661 323.503C495.173 320.657 492.081 318.275 489.274 319.451C486.447 320.634 485.651 324.521 485.416 327.807C485.063 332.794 485.061 337.807 485.359 342.796C485.568 346.303 485.928 349.799 486.417 353.271C480.261 341.836 473.836 330.561 467.162 319.44L467.177 319.424C469.44 316.627 470.768 311.56 471.909 308.095C473.149 304.328 474.115 300.453 474.789 296.52C475.718 291.112 476.025 285.202 473.527 280.42C472.039 277.574 468.949 275.192 466.142 276.366C463.314 277.549 462.517 281.436 462.284 284.724C461.929 289.709 461.927 294.723 462.227 299.713C462.492 304.201 463.005 308.67 463.716 313.1C463.753 313.322 463.785 313.61 463.82 313.926C457.077 302.887 450.087 292.006 442.835 281.301C441.998 280.065 440.4 279.801 439.265 280.714C438.127 281.625 437.886 283.365 438.725 284.602C451.005 302.732 462.551 321.35 473.352 340.419C472.138 339.446 470.641 338.538 469.934 337.995C466.558 335.404 463.065 332.995 459.449 330.815C455.433 328.394 451.267 326.256 446.974 324.477C444.143 323.304 440.576 322.431 438.385 324.711C436.213 326.973 436.873 331.034 438.602 333.712C441.51 338.214 446.551 340.432 451.438 341.826C454.994 342.841 458.623 343.541 462.282 343.928C465.646 344.282 470.423 345.138 473.71 344.101C474.39 343.887 474.777 343.617 474.983 343.317C484.286 359.894 493.031 376.808 501.199 394.042C498.21 391.809 495.133 389.707 491.961 387.795C487.943 385.372 483.779 383.236 479.486 381.456C476.653 380.284 473.087 379.409 470.897 381.69C468.725 383.952 469.383 388.014 471.114 390.692C474.018 395.194 479.061 397.41 483.949 398.805C487.505 399.818 491.135 400.52 494.794 400.906C497.654 401.208 501.529 401.86 504.651 401.416C512.168 417.686 519.174 434.24 525.67 451.049C524.815 450.454 523.994 449.93 523.525 449.569C520.149 446.976 516.654 444.567 513.04 442.389C509.022 439.967 504.858 437.83 500.565 436.052C497.734 434.878 494.166 434.006 491.978 436.284C489.804 438.546 490.462 442.608 492.191 445.286C495.099 449.788 500.14 452.007 505.029 453.401C508.583 454.415 512.214 455.116 515.871 455.5C519.237 455.856 524.012 456.711 527.301 455.676L527.434 455.621C536.445 479.346 544.439 503.579 551.386 528.27C551.799 529.737 553.227 530.563 554.577 530.115L554.821 530.018C556.015 529.472 556.659 528.019 556.27 526.641C551.445 509.488 546.112 492.559 540.293 475.863C542.784 473.496 544.864 469.284 546.516 466.37C548.447 462.965 550.13 459.392 551.538 455.696C553.474 450.614 554.901 444.902 553.365 439.658C552.452 436.54 549.882 433.512 546.912 434.027Z" fill="#FEFAC4"/>
<path d="M706.3 312.229C703.43 311.167 700.534 313.596 698.422 315.958C695.217 319.543 692.268 323.392 689.562 327.433C687.339 330.753 685.286 334.207 683.38 337.752C685.308 319.329 686.651 300.863 687.419 282.377C690.468 280.891 693.602 277.37 695.97 275.015C698.683 272.317 701.199 269.383 703.485 266.249C706.625 261.939 709.433 256.87 709.278 251.37C709.185 248.097 707.473 244.418 704.488 244.03C701.48 243.637 699.108 246.666 697.49 249.456C695.038 253.684 692.885 258.114 691.007 262.678C689.836 265.521 688.778 268.419 687.812 271.352C688.313 254.167 688.31 236.967 687.806 219.772C690.739 218.194 693.72 214.854 695.996 212.592C698.707 209.892 701.225 206.958 703.51 203.824C706.651 199.514 709.459 194.446 709.303 188.946C709.209 185.674 707.499 181.995 704.512 181.605C701.505 181.212 699.134 184.243 697.516 187.032C695.061 191.261 692.91 195.691 691.03 200.253C689.711 203.461 688.531 206.734 687.471 210.053C686.935 196.811 686.096 183.573 684.966 170.346L684.989 170.34C688.19 169.017 691.535 165.214 694.032 162.732C696.747 160.032 699.263 157.1 701.548 153.965C704.689 149.654 707.497 144.585 707.339 139.086C707.247 135.814 705.535 132.135 702.55 131.745C699.542 131.354 697.17 134.383 695.552 137.171C693.1 141.399 690.947 145.831 689.07 150.393C687.379 154.499 685.911 158.71 684.642 162.989C684.577 163.203 684.483 163.476 684.379 163.77C683.155 150.582 681.645 137.406 679.827 124.251C679.618 122.733 678.317 121.687 676.922 121.916C675.526 122.143 674.566 123.56 674.775 125.078C677.852 147.354 680.071 169.689 681.437 192.043C680.78 190.567 679.847 189.003 679.455 188.163C677.582 184.155 675.528 180.245 673.268 176.48C670.754 172.296 667.989 168.287 664.958 164.531C662.957 162.053 660.178 159.467 657.264 160.368C654.372 161.262 653.211 165.188 653.59 168.436C654.229 173.894 657.734 178.419 661.457 182.14C664.166 184.845 667.075 187.313 670.145 189.514C672.967 191.539 676.82 194.723 680.172 195.482C680.865 195.638 681.324 195.597 681.635 195.435C682.745 214.825 683.218 234.229 683.043 253.621C681.359 250.123 679.543 246.703 677.557 243.396C675.044 239.212 672.28 235.203 669.248 231.447C667.247 228.968 664.47 226.382 661.554 227.285C658.661 228.179 657.502 232.104 657.882 235.352C658.52 240.81 662.026 245.336 665.749 249.055C668.457 251.762 671.367 254.227 674.434 256.429C676.834 258.153 679.982 260.7 682.931 261.896C682.595 280.105 681.683 298.304 680.214 316.47C679.715 315.51 679.214 314.628 678.953 314.073C677.08 310.062 675.026 306.154 672.765 302.389C670.252 298.203 667.487 294.196 664.456 290.438C662.455 287.961 659.675 285.375 656.762 286.277C653.87 287.172 652.709 291.097 653.09 294.345C653.727 299.803 657.232 304.328 660.955 308.048C663.664 310.753 666.573 313.222 669.643 315.422C672.463 317.448 676.318 320.632 679.672 321.39L679.811 321.41C677.599 346.97 674.266 372.46 669.811 397.827C669.546 399.335 670.455 400.791 671.84 401.08L672.098 401.12C673.387 401.244 674.579 400.287 674.827 398.872C677.923 381.25 680.473 363.57 682.494 345.848C685.712 345.023 689.358 342.358 692.071 340.621C695.237 338.593 698.259 336.29 701.09 333.74C704.984 330.231 708.695 325.907 709.588 320.49C710.12 317.269 709.146 313.284 706.3 312.229Z" fill="#FEFAC4"/>
<path d="M831.823 395.876C829.308 394.039 825.93 395.563 823.325 397.245C819.374 399.798 815.608 402.678 812.029 405.812C809.089 408.388 806.284 411.143 803.594 414.025C809.859 396.782 815.571 379.334 820.73 361.703C824.029 361.131 827.897 358.622 830.745 357.019C834.011 355.18 837.142 353.062 840.097 350.683C844.16 347.411 848.084 343.314 849.248 337.96C849.939 334.772 849.167 330.734 846.377 329.514C843.567 328.284 840.552 330.536 838.324 332.769C834.944 336.157 831.808 339.827 828.903 343.699C827.093 346.113 825.379 348.612 823.747 351.169C828.336 334.718 832.445 318.111 836.068 301.364C839.277 300.671 842.956 298.293 845.692 296.752C848.956 294.917 852.089 292.795 855.043 290.416C859.107 287.147 863.03 283.047 864.192 277.693C864.886 274.507 864.112 270.47 861.322 269.248C858.511 268.017 855.497 270.271 853.269 272.504C849.89 275.893 846.752 279.56 843.85 283.434C841.806 286.155 839.887 288.982 838.069 291.886C840.717 278.949 843.071 265.929 845.141 252.838H845.164C848.571 252.469 852.712 249.744 855.715 248.054C858.981 246.217 862.111 244.098 865.067 241.718C869.13 238.448 873.054 234.349 874.216 228.995C874.909 225.808 874.137 221.771 871.347 220.549C868.535 219.319 865.522 221.572 863.294 223.806C859.913 227.193 856.776 230.862 853.873 234.735C851.259 238.219 848.837 241.87 846.587 245.641C846.472 245.83 846.319 246.066 846.148 246.322C848.118 233.241 849.807 220.091 851.198 206.875C851.358 205.35 850.354 203.969 848.952 203.795C847.55 203.622 846.282 204.715 846.124 206.243C843.77 228.624 840.572 250.815 836.547 272.788C836.266 271.175 835.738 269.4 835.562 268.479C834.711 264.077 833.661 259.721 832.379 255.446C830.952 250.692 829.242 246.039 827.211 241.552C825.872 238.594 823.808 235.309 820.779 235.354C817.773 235.397 815.714 238.859 815.305 242.102C814.615 247.554 816.919 252.917 819.624 257.562C821.591 260.943 823.811 264.149 826.248 267.145C828.49 269.9 831.45 274.067 834.504 275.749C835.135 276.097 835.589 276.185 835.927 276.118C832.365 295.154 828.183 314.022 823.378 332.699C822.591 328.844 821.651 325.024 820.526 321.271C819.099 316.517 817.389 311.864 815.359 307.379C814.022 304.419 811.955 301.134 808.926 301.179C805.92 301.222 803.862 304.684 803.452 307.927C802.763 313.379 805.066 318.743 807.771 323.389C809.74 326.768 811.958 329.974 814.395 332.97C816.302 335.315 818.729 338.665 821.293 340.654C816.615 358.144 811.386 375.456 805.625 392.579C805.372 391.511 805.097 390.518 804.98 389.906C804.129 385.505 803.079 381.15 801.797 376.874C800.371 372.119 798.66 367.467 796.631 362.978C795.29 360.021 793.227 356.736 790.197 356.78C787.191 356.825 785.132 360.285 784.724 363.528C784.033 368.98 786.336 374.343 789.043 378.99C791.01 382.37 793.23 385.576 795.666 388.572C797.908 391.325 800.867 395.495 803.924 397.176L804.054 397.237C795.808 421.287 786.496 444.954 776.132 468.185C775.516 469.564 776.044 471.229 777.312 471.901L777.554 472.012C778.77 472.497 780.148 471.91 780.727 470.614C787.927 454.479 794.615 438.128 800.801 421.59C804.108 421.707 808.266 420.166 811.298 419.258C814.842 418.198 818.309 416.831 821.651 415.169C826.251 412.885 830.868 409.763 833.025 404.784C834.309 401.825 834.32 397.701 831.823 395.876Z" fill="#FEFAC4"/>
<path d="M841.912 514.672C860.903 508.863 880.834 500.737 895.478 487.084C908.488 474.954 902.268 451.664 885.265 449.434C880.746 448.84 876.133 448.912 871.682 449.599C857.043 451.854 843.685 459.641 830.679 467.298C816.336 475.741 777.336 495.063 779.975 517.566C782.487 538.975 829.93 518.335 841.912 514.672Z" fill="#6F8B76"/>
<path d="M814.076 429.094C825.024 411.23 835.302 390.936 838.261 370.195C840.889 351.766 822.248 338.49 808.005 348.842C804.218 351.594 800.758 354.917 797.788 358.59C788.022 370.677 782.533 386.053 777.234 401.081C771.389 417.655 753.324 459.959 768.779 475.176C783.48 489.652 807.168 440.365 814.076 429.094Z" fill="#6F8B76"/>
<path d="M796.85 519.851C800.157 515.033 803.03 509.861 805.404 504.434C812.265 501.439 819.184 498.547 826.144 495.753L826.319 495.884L846.346 506.409C846.667 506.578 847.008 506.658 847.344 506.658C848.201 506.658 849.022 506.136 849.42 505.24C849.974 503.991 849.492 502.492 848.347 501.892L832.147 493.378C840.4 490.148 848.705 487.062 857.045 484.138C857.172 484.237 857.293 484.342 857.444 484.412L874.844 492.537C875.141 492.676 875.448 492.741 875.75 492.741C876.644 492.741 877.494 492.171 877.869 491.221C878.371 489.949 877.828 488.473 876.661 487.928L863.667 481.861C868.893 480.084 874.126 478.351 879.369 476.703C880.59 476.318 881.299 474.932 880.943 473.597C880.651 472.498 879.73 471.786 878.73 471.786C878.518 471.786 878.304 471.818 878.09 471.885C868.047 475.044 858.024 478.444 848.058 482.06L857.003 466.413C857.673 465.24 857.344 463.692 856.265 462.961C855.887 462.704 855.466 462.582 855.05 462.582C854.281 462.582 853.529 463.001 853.093 463.764L842.279 482.677C842.076 483.03 841.967 483.414 841.938 483.802C841.926 483.973 841.944 484.145 841.964 484.314C830.53 488.575 819.179 493.114 807.969 497.925C809.081 494.762 810.027 491.531 810.795 488.251C827.762 478.734 845.517 463.929 852.769 458.901C856.163 456.549 859.567 454.115 862.947 451.6C865.812 450.738 868.72 450.056 871.681 449.599C874.114 449.223 876.592 449.033 879.077 449.033C880.362 449.033 881.649 449.083 882.933 449.186V496.773C870.409 504.852 855.905 510.391 841.912 514.672C838.884 515.596 833.596 517.604 827.34 519.746C827.017 519.744 826.693 519.744 826.372 519.742C822.585 519.732 818.806 519.721 815.024 519.721C808.95 519.721 802.889 519.749 796.85 519.851Z" fill="#596F5E"/>
<path d="M786.05 442.426C786.847 441.973 787.647 441.528 788.45 441.09C788.152 441.505 787.854 441.924 787.561 442.342C787.058 442.369 786.554 442.398 786.05 442.426ZM834.427 386.755C834.971 384.114 835.218 381.459 835.218 378.804C835.219 367.843 831.008 356.872 825.995 346.761C833.107 349.882 838.523 357.438 838.511 366.743C838.51 367.87 838.428 369.022 838.261 370.195C837.467 375.76 836.147 381.292 834.427 386.755Z" fill="#596F5E"/>
<path d="M852.769 458.901C875.032 443.467 897.674 424.666 911.583 401.011C923.938 380 907.7 352.788 885.128 357.089C879.131 358.231 873.246 360.267 867.791 363.018C849.842 372.072 835.497 387.669 821.558 402.952C806.184 419.803 763.093 460.974 774.466 488.687C785.287 515.048 838.725 468.638 852.769 458.901Z" fill="#6F8B76"/>
<path d="M813.056 451.701C813.047 450.741 813.039 449.782 813.041 448.825C813.041 446.174 813.091 443.534 813.24 440.92C812.483 440.962 811.728 441.003 810.973 441.045C811.436 437.051 812.112 433.083 812.99 429.168C813.669 428.852 814.347 428.536 815.024 428.22C815.49 426.326 816.045 424.454 816.738 422.611C819.141 416.229 822.941 410.562 826.463 404.779C826.445 405.139 826.354 405.498 826.187 405.834C820.375 417.392 816.683 430.251 815.365 443.371L843.811 419.41L850.713 383.694C850.94 382.512 851.898 381.701 852.964 381.701C853.12 381.701 853.28 381.72 853.441 381.757C854.683 382.042 855.489 383.376 855.219 384.726L849.432 414.676L882.933 386.461V392.802L864.85 408.031L882.933 408.835V413.853L861.623 412.907C860.986 412.879 860.419 412.571 860.022 412.098L830.648 436.839C835.279 437.889 840.003 438.417 844.728 438.417C850.166 438.417 855.604 437.717 860.897 436.306C861.081 436.256 861.267 436.232 861.448 436.232C862.484 436.232 863.424 437 863.681 438.143C863.986 439.487 863.229 440.848 861.992 441.176C856.309 442.692 850.469 443.449 844.626 443.449C838.675 443.449 832.723 442.662 826.939 441.09C826.63 441.007 826.362 440.848 826.122 440.651L814.745 450.235C814.45 450.985 813.813 451.545 813.056 451.701Z" fill="#596F5E"/>
<path d="M847.344 506.658C847.008 506.658 846.667 506.578 846.346 506.409L826.319 495.884L826.144 495.753C819.184 498.547 812.265 501.439 805.404 504.434C806.337 502.301 807.194 500.13 807.969 497.925C819.179 493.114 830.53 488.575 841.964 484.314C841.944 484.145 841.926 483.973 841.938 483.802C841.967 483.414 842.076 483.03 842.279 482.677L853.093 463.764C853.529 463.001 854.281 462.582 855.05 462.582C855.466 462.582 855.887 462.704 856.265 462.961C857.344 463.692 857.673 465.24 857.003 466.413L848.058 482.06C858.024 478.444 868.047 475.044 878.09 471.885C878.304 471.818 878.519 471.786 878.73 471.786C879.73 471.786 880.651 472.498 880.943 473.597C881.299 474.932 880.59 476.318 879.369 476.703C874.126 478.351 868.893 480.084 863.667 481.861L876.661 487.928C877.828 488.473 878.371 489.949 877.869 491.221C877.494 492.171 876.644 492.741 875.75 492.741C875.448 492.741 875.141 492.676 874.844 492.537L857.444 484.412C857.293 484.342 857.172 484.237 857.045 484.138C848.705 487.062 840.4 490.148 832.147 493.378L848.347 501.892C849.492 502.492 849.974 503.991 849.42 505.24C849.022 506.136 848.201 506.658 847.344 506.658Z" fill="#47594B"/>
<path d="M813.24 440.92C804.177 441.421 795.112 441.923 786.05 442.426C795.453 437.092 805.309 432.765 815.024 428.22C815.49 426.326 816.046 424.454 816.738 422.611C821.306 410.48 830.922 400.929 834.08 388.278C837.839 373.239 831.67 357.701 824.579 343.964C817.724 345.136 810.816 345.937 803.887 346.333C808.726 341.634 813.569 336.935 818.41 332.236C812.404 320.495 807.225 308.125 808.272 294.975C809.571 278.641 820.452 263.072 816.523 247.245C814.085 237.433 806.511 230.372 800.18 222.901C795.399 217.261 788.349 211.905 786.316 205.419C785.783 203.725 783.818 203.202 782.7 204.516C773.439 215.419 754.119 215.726 744.634 227.855C739.826 234 738.355 242.154 736.349 250.048C740.812 256.111 745.277 262.173 749.742 268.235C743.984 265.496 738.145 263.542 732.292 261.7C731.99 262.293 731.681 262.882 731.34 263.452C726.04 272.349 716.994 276.842 707.705 281.067C707.41 288.171 707.117 295.276 706.82 302.379C704.281 296.585 701.741 290.789 699.202 284.995C691.795 288.609 684.936 292.875 680.51 300.022C672.044 313.681 675.443 333.585 665.777 346.265C657.189 357.527 639.756 361.001 636.673 375.247C633.428 390.24 649.434 402.706 650.059 418.096C650.57 430.696 640.851 440.716 636.571 452.436C630.894 467.966 635.302 486.143 644.082 499.856C652.861 513.567 665.473 523.713 677.851 533.601C700.941 552.045 740.315 560.117 766.321 547.065C792.33 534.01 810.881 504.861 812.97 473.764C813.701 462.916 812.623 451.716 813.24 440.92Z" fill="#395F5A"/>
<path d="M732.889 525.969C734.518 517.241 735.134 508.388 734.153 499.496C733.668 495.093 732.673 490.7 731.23 486.47C731.128 482.644 730.803 478.822 730.25 475.046C734.641 465.363 736.533 454.339 733.86 444.058C733.003 440.763 731.716 437.642 730.172 434.631C747.148 423.641 763.459 411.296 778.78 397.797C779.344 397.3 779.636 396.573 779.634 395.841C779.634 395.289 779.465 394.734 779.121 394.271C778.668 393.659 778.002 393.341 777.329 393.341C776.821 393.341 776.308 393.524 775.883 393.898C760.723 407.255 744.584 419.479 727.784 430.356C727.052 429.136 726.289 427.927 725.509 426.729L737.394 383.308C756.936 371.668 774.391 356.641 789.259 338.533C789.652 338.053 789.846 337.453 789.844 336.856C789.844 336.169 789.585 335.486 789.078 334.992C788.639 334.564 788.089 334.354 787.543 334.354C786.91 334.354 786.279 334.636 785.825 335.19C772.352 351.601 756.711 365.431 739.277 376.422L760.608 298.484L798.777 261.441C799.288 260.944 799.549 260.256 799.548 259.563C799.546 258.972 799.354 258.378 798.964 257.9C798.508 257.345 797.877 257.061 797.243 257.061C796.7 257.061 796.152 257.27 795.712 257.698L763.112 289.337L778.673 232.475C778.739 232.236 778.77 231.995 778.77 231.76C778.77 230.678 778.125 229.68 777.124 229.356C776.906 229.286 776.684 229.252 776.468 229.252C776.287 229.252 776.107 229.276 775.934 229.321C778.415 220.855 780.922 212.408 783.459 203.963C783.715 203.849 783.984 203.794 784.251 203.794C785.128 203.794 785.989 204.381 786.316 205.419C788.349 211.905 795.399 217.261 800.18 222.901C806.511 230.372 814.085 237.433 816.523 247.245C820.452 263.072 809.569 278.641 808.272 294.975C808.18 296.13 808.135 297.28 808.135 298.424C808.141 310.295 812.932 321.528 818.41 332.236C817.545 333.075 816.681 333.914 815.817 334.753C811.84 338.613 807.863 342.473 803.887 346.333C810.816 345.937 817.724 345.136 824.579 343.964C830.188 354.83 835.219 366.823 835.218 378.804C835.218 381.971 834.866 385.135 834.08 388.278C832.583 394.273 829.637 399.572 826.463 404.779C822.941 410.562 819.141 416.229 816.738 422.611C816.045 424.454 815.49 426.326 815.024 428.22C814.347 428.536 813.669 428.852 812.99 429.168C804.762 432.991 796.462 436.717 788.45 441.09C787.647 441.528 786.847 441.973 786.05 442.426C795.112 441.923 804.177 441.421 813.24 440.92C813.091 443.534 813.041 446.174 813.041 448.825C813.039 454.126 813.237 459.481 813.236 464.802C813.234 467.804 813.17 470.796 812.97 473.764C811.852 490.407 806.018 506.492 796.85 519.851C775.042 520.219 753.534 521.546 732.889 525.969Z" fill="#30534E"/>
<path d="M716.693 437.369C712.001 427.906 707.617 418.385 706.754 407.792C706.639 406.364 706.588 404.931 706.59 403.499C706.593 394.772 708.455 385.978 708.451 377.322C708.451 374.403 708.237 371.499 707.668 368.62C704.456 352.371 690.98 341.263 678.113 332.318C676.32 331.069 674.502 329.813 672.687 328.536C673.578 324.026 674.229 319.372 675.165 314.862C680.085 319.322 685.978 322.916 691.554 326.353C698.139 330.412 705.008 335.298 709.679 341.581C709.65 341.739 709.636 341.901 709.636 342.065C709.636 342.217 709.65 342.371 709.676 342.525L714.104 368.276C712.234 376.27 709.076 384.234 709.331 392.454C709.676 403.514 715.876 412.511 722.096 421.64L718.035 436.473C717.726 436.662 717.422 436.859 717.112 437.046C716.958 437.138 716.819 437.247 716.693 437.369Z" fill="#335551"/>
<path d="M730.25 475.046C729.25 468.202 727.506 461.495 724.996 455.109C723.656 451.697 722.109 448.356 720.497 445.039L721.921 439.835C724.687 438.136 727.439 436.401 730.172 434.631C731.716 437.642 733.003 440.763 733.86 444.058C736.533 454.339 734.641 465.363 730.25 475.046ZM723.823 432.891L725.509 426.729C726.289 427.927 727.052 429.136 727.784 430.356C726.468 431.209 725.148 432.055 723.823 432.891Z" fill="#2B4B46"/>
<path d="M798.777 261.441C799.726 260.52 799.81 258.935 798.964 257.9C798.117 256.867 796.663 256.773 795.713 257.698L763.112 289.336L778.673 232.475C779.035 231.148 778.343 229.752 777.124 229.356C775.905 228.966 774.624 229.713 774.259 231.042L756.567 295.687L756.471 295.781C755.77 296.461 755.549 297.506 755.819 298.422L745.997 334.31L734.176 289.047C733.828 287.715 732.547 286.939 731.331 287.32C730.107 287.7 729.398 289.086 729.747 290.418L743.546 343.259L733.513 379.921C733.29 380.051 733.075 380.193 732.853 380.322C731.727 380.971 731.299 382.487 731.891 383.712C732.005 383.941 732.149 384.14 732.311 384.314L725.701 408.464L714.204 341.601C713.971 340.24 712.767 339.339 711.515 339.598C710.267 339.852 709.441 341.164 709.676 342.525L722.252 415.665C722.374 416.372 722.773 416.926 723.287 417.285L718.035 436.473C717.726 436.662 717.422 436.859 717.112 437.046C715.999 437.717 715.597 439.243 716.215 440.455C716.355 440.733 716.547 440.952 716.757 441.144L705.831 481.066C705.469 482.393 706.162 483.791 707.381 484.185C707.6 484.257 707.821 484.29 708.039 484.29C709.031 484.29 709.946 483.587 710.246 482.498L721.921 439.835C741.868 427.586 760.993 413.469 778.78 397.796C779.769 396.926 779.923 395.347 779.121 394.271C778.326 393.198 776.872 393.027 775.883 393.898C759.534 408.303 742.048 421.388 723.823 432.891L737.394 383.308C756.937 371.668 774.391 356.641 789.259 338.533C790.105 337.5 790.026 335.915 789.078 334.992C788.129 334.069 786.672 334.158 785.825 335.19C772.352 351.601 756.711 365.431 739.277 376.422L760.608 298.484L798.777 261.441Z" fill="#395F5A"/>
<path d="M720.497 445.039C719.249 442.474 717.959 439.923 716.693 437.369C716.819 437.247 716.958 437.138 717.112 437.046C717.422 436.859 717.726 436.662 718.035 436.473L723.287 417.285C722.773 416.926 722.374 416.372 722.252 415.665L714.104 368.276L709.676 342.525C709.65 342.371 709.636 342.217 709.636 342.065C709.635 340.88 710.408 339.824 711.515 339.598C711.661 339.568 711.806 339.553 711.947 339.553C713.032 339.553 713.997 340.397 714.204 341.601L725.701 408.464L732.31 384.314C732.149 384.14 732.005 383.941 731.891 383.712C731.712 383.34 731.626 382.938 731.624 382.544C731.624 381.645 732.069 380.774 732.852 380.322C733.075 380.194 733.29 380.051 733.513 379.921L743.546 343.259L729.746 290.418C729.687 290.189 729.657 289.958 729.657 289.733C729.657 288.639 730.318 287.635 731.331 287.32C731.541 287.255 731.753 287.223 731.962 287.223C732.962 287.223 733.887 287.944 734.176 289.047L745.997 334.31L755.819 298.422C755.745 298.171 755.707 297.911 755.707 297.652C755.705 296.963 755.961 296.276 756.471 295.781L756.566 295.687L774.259 231.043C774.558 229.953 775.475 229.252 776.468 229.252C776.684 229.252 776.906 229.286 777.124 229.356C778.125 229.68 778.77 230.678 778.77 231.76C778.77 231.995 778.739 232.236 778.673 232.475L763.112 289.336L795.712 257.698C796.152 257.27 796.7 257.061 797.243 257.061C797.877 257.061 798.508 257.345 798.964 257.9C799.354 258.378 799.546 258.972 799.548 259.563C799.549 260.256 799.288 260.944 798.777 261.441L760.608 298.484L739.276 376.422C756.711 365.431 772.352 351.601 785.825 335.19C786.279 334.636 786.91 334.354 787.543 334.354C788.089 334.354 788.639 334.564 789.078 334.992C789.585 335.485 789.844 336.169 789.844 336.856C789.846 337.453 789.652 338.053 789.259 338.533C774.391 356.641 756.936 371.668 737.394 383.308L723.823 432.891C742.048 421.388 759.534 408.303 775.883 393.898C776.308 393.524 776.821 393.341 777.329 393.341C778.002 393.341 778.668 393.659 779.121 394.271C779.465 394.734 779.634 395.289 779.634 395.841C779.635 396.573 779.344 397.3 778.78 397.797C760.993 413.469 741.868 427.586 721.921 439.835L720.497 445.039Z" fill="#23413D"/>
<path d="M630.239 575.855C615.074 573.267 599.589 570.567 586.006 562.78C572.421 554.992 560.835 541.055 559.321 524.421C558.179 511.87 562.581 498.107 556.809 487.172C549.759 473.816 530.281 470.753 526.835 455.813C523.562 441.617 537.58 429.808 540.453 415.51C543.688 399.413 532.269 383.437 534.021 367.069C536.413 344.747 561.715 331.52 563.735 309.156C564.894 296.317 557.841 283.457 560.519 270.889C563.826 255.372 580.853 245.433 584.48 231.114C584.916 229.389 586.882 228.869 588.071 230.108C592.614 234.851 601.135 236.081 607.764 238.701C616.54 242.168 626.247 244.65 632.551 252.146C642.721 264.234 639.627 283.507 645.367 298.665C651.186 314.033 665.247 323.369 678.113 332.318C690.98 341.263 704.456 352.371 707.668 368.62C710.201 381.437 705.692 394.732 706.754 407.792C708.151 424.94 718.775 439.282 724.996 455.109C736.264 483.774 732.089 518.945 714.499 543.552C696.909 568.158 658.532 580.686 630.239 575.855Z" fill="#EDAF2F"/>
<path d="M584.008 232.731C584.007 232.696 584.005 232.662 584.002 232.629C584.166 232.124 584.349 231.629 584.48 231.114C584.342 231.659 584.183 232.198 584.008 232.731Z" fill="#C9DCB8"/>
<path d="M679.745 546.924C679.782 546.899 679.819 546.877 679.857 546.852C679.821 546.876 679.782 546.901 679.745 546.924ZM679.88 546.839C679.911 546.819 679.942 546.8 679.973 546.78C679.943 546.799 679.91 546.82 679.88 546.839ZM679.996 546.767C680.026 546.747 680.06 546.725 680.092 546.707C680.06 546.727 680.026 546.747 679.996 546.767ZM680.108 546.697C681.018 546.13 681.932 545.573 682.848 545.03C681.932 545.573 681.017 546.13 680.108 546.697ZM683.332 544.744C683.369 544.722 683.406 544.701 683.441 544.679C683.404 544.702 683.37 544.722 683.332 544.744ZM683.455 544.672C683.493 544.651 683.53 544.629 683.568 544.605C683.53 544.627 683.492 544.651 683.455 544.672ZM683.568 544.605C683.608 544.582 683.645 544.56 683.685 544.537C683.644 544.56 683.608 544.582 683.568 544.605ZM683.69 544.535C683.727 544.514 683.765 544.49 683.802 544.468C683.765 544.49 683.727 544.512 683.69 544.535ZM683.833 544.452C683.859 544.437 683.885 544.422 683.909 544.407C683.883 544.422 683.859 544.435 683.833 544.452ZM684.186 544.246C684.195 544.241 684.204 544.234 684.213 544.229C684.206 544.234 684.193 544.241 684.186 544.246ZM684.585 544.015C684.586 544.015 684.585 544.015 684.588 544.014L684.585 544.015ZM731.23 486.47C729.702 481.992 727.671 477.697 725.214 473.772C722.067 465.651 716.832 458.474 710.112 453.548C703.227 448.501 694.923 445.916 686.628 445.916C680.637 445.916 674.651 447.266 669.211 450.01C660.825 454.242 653.991 461.348 646.277 466.893C641.777 470.126 636.647 472.858 631.399 473.988C629.913 472.109 628.413 470.225 626.918 468.329C626.789 468.102 626.66 467.876 626.531 467.65C650.086 449.073 666.914 420.767 672.759 389.739C672.792 389.57 672.807 389.401 672.807 389.234C672.807 388.067 672.056 387.022 670.966 386.778C670.811 386.745 670.657 386.728 670.505 386.728C669.428 386.728 668.471 387.541 668.245 388.731C662.655 418.424 646.592 445.517 624.1 463.367C621.946 459.579 619.775 455.734 617.727 451.883C612.325 441.721 605.759 427.782 603.472 412.604C603.809 402.23 606.291 391.844 609.325 381.457C626.096 370.8 640.311 355.842 650.647 337.889C650.885 337.476 650.998 337.017 651 336.564C651.002 335.728 650.619 334.909 649.921 334.432C649.54 334.173 649.116 334.05 648.698 334.05C647.932 334.05 647.183 334.466 646.747 335.225C637.753 350.843 625.706 364.098 611.553 374.072C614.527 364.434 617.652 354.792 619.654 345.156C622.308 337.234 624.441 328.377 624.438 319.379C624.436 315.703 624.079 312.003 623.256 308.332C620.696 296.931 614.088 287.558 607.698 278.494C602.084 270.528 596.278 262.293 593.526 252.932C593.215 251.867 592.304 251.192 591.329 251.192C591.097 251.192 590.862 251.228 590.632 251.309C589.866 251.574 589.319 252.236 589.117 253.019C586.376 246.462 584.449 239.57 584.008 232.731C584.183 232.198 584.342 231.659 584.48 231.114C584.752 230.04 585.617 229.433 586.52 229.428C586.523 229.428 586.526 229.428 586.531 229.428C586.533 229.428 586.534 229.428 586.534 229.428C587.075 229.429 587.627 229.647 588.071 230.108C592.614 234.851 601.136 236.081 607.764 238.701C616.54 242.168 626.247 244.65 632.551 252.146C642.721 264.234 639.627 283.507 645.367 298.665C651.186 314.033 665.247 323.369 678.113 332.318C690.98 341.263 704.456 352.371 707.668 368.62C708.237 371.499 708.451 374.403 708.451 377.322C708.455 385.978 706.593 394.772 706.59 403.499C706.588 404.931 706.639 406.364 706.754 407.792C708.151 424.94 718.775 439.282 724.996 455.109C728.893 465.021 730.943 475.71 731.23 486.47Z" fill="#F4C53E"/>
<path d="M672.759 389.739C673.014 388.383 672.211 387.058 670.966 386.778C669.712 386.508 668.502 387.373 668.245 388.731C662.655 418.424 646.592 445.517 624.1 463.367C621.946 459.579 619.775 455.734 617.727 451.883C610.337 437.981 600.765 417.008 602.958 395.466C603.352 391.583 604.148 387.76 605.164 383.982C623.747 373.224 639.466 357.308 650.647 337.889C651.324 336.714 650.998 335.168 649.92 334.432C648.843 333.698 647.421 334.051 646.747 335.225C636.871 352.375 623.315 366.674 607.329 376.91C609.142 371.626 611.277 366.435 613.391 361.327C614.439 358.791 615.488 356.26 616.495 353.722C621.538 341.027 626.861 324.394 623.256 308.332C620.696 296.931 614.088 287.558 607.698 278.494C602.084 270.528 596.277 262.293 593.526 252.932C593.139 251.614 591.84 250.892 590.632 251.309C589.419 251.732 588.753 253.142 589.139 254.461C592.137 264.654 598.189 273.241 604.043 281.546C610.424 290.599 616.451 299.148 618.781 309.524C620.759 318.332 619.704 327.505 617.519 336.025C605.45 323.648 594.82 309.686 585.937 294.452C585.255 293.283 583.829 292.937 582.758 293.68C581.684 294.422 581.366 295.971 582.048 297.142C591.539 313.417 602.961 328.29 615.993 341.363C614.84 345.019 613.546 348.51 612.267 351.731C611.269 354.247 610.231 356.755 609.19 359.267C604.509 370.58 599.665 382.278 598.379 394.915C596.646 411.949 601.673 428.4 607.53 441.689C596.503 436.822 586.403 426.894 578.771 413.275C571.005 399.416 566.436 383.562 562.019 368.229C561.638 366.91 560.343 366.171 559.131 366.588C557.918 367.002 557.242 368.408 557.623 369.73C562.124 385.351 566.778 401.503 574.839 415.888C583.948 432.142 596.463 443.546 610.076 447.996C610.217 448.041 610.36 448.048 610.503 448.065C611.601 450.298 612.692 452.421 613.741 454.395C616.351 459.303 619.145 464.203 621.848 468.941C628.852 481.226 636.097 493.929 640.564 507.612C640.628 507.811 640.679 508.009 640.744 508.206C612.82 510.646 583.945 492.761 571.748 465.29C571.192 464.043 569.818 463.52 568.671 464.123C567.528 464.726 567.047 466.226 567.6 467.473C579.808 494.961 607.682 513.457 635.672 513.457C637.831 513.457 639.996 513.343 642.15 513.119C647.174 532.558 645.023 551.162 636.068 563.718C635.29 564.813 635.471 566.388 636.475 567.237C636.894 567.593 637.393 567.763 637.886 567.763C638.573 567.763 639.254 567.431 639.707 566.794C648.121 554.993 651.118 538.509 648.451 520.886C656.183 511.451 662.035 500.065 665.363 487.956C665.729 486.629 665.036 485.232 663.819 484.835C662.6 484.438 661.316 485.191 660.951 486.517C658.15 496.699 653.45 506.33 647.292 514.607C646.646 511.73 645.849 508.834 644.903 505.934C640.438 492.251 633.423 479.742 626.531 467.65C650.086 449.073 666.914 420.767 672.759 389.739Z" fill="#EDAF2F"/>
<path d="M626.363 474.546C625.91 474.546 625.459 474.533 625.008 474.503C623.956 472.639 622.898 470.785 621.848 468.941C619.146 464.203 616.351 459.303 613.741 454.395C612.692 452.421 611.601 450.298 610.503 448.065C610.36 448.048 610.217 448.041 610.076 447.996C596.463 443.546 583.949 432.142 574.839 415.888C566.778 401.503 562.125 385.351 557.623 369.73C557.551 369.483 557.517 369.232 557.515 368.985C557.514 367.917 558.145 366.924 559.131 366.587C559.359 366.507 559.591 366.47 559.82 366.47C560.8 366.47 561.71 367.159 562.019 368.229C566.436 383.562 571.005 399.416 578.771 413.275C586.404 426.894 596.503 436.822 607.53 441.689C602.474 430.218 598.036 416.389 598.033 401.862C598.031 399.562 598.142 397.243 598.38 394.915C599.665 382.278 604.509 370.58 609.19 359.267C610.231 356.755 611.269 354.247 612.267 351.731C613.546 348.51 614.84 345.019 615.993 341.363C602.961 328.29 591.539 313.417 582.048 297.142C581.805 296.725 581.69 296.261 581.688 295.803C581.688 294.972 582.066 294.158 582.759 293.68C583.139 293.415 583.566 293.288 583.99 293.288C584.752 293.288 585.498 293.7 585.937 294.452C594.821 309.686 605.45 323.648 617.52 336.025C618.903 330.633 619.832 324.98 619.827 319.323C619.824 316.042 619.508 312.759 618.782 309.524C616.451 299.148 610.425 290.599 604.044 281.546C598.189 273.241 592.137 264.654 589.14 254.461C589.066 254.209 589.031 253.953 589.029 253.702C589.028 252.639 589.651 251.65 590.632 251.309C590.862 251.228 591.097 251.192 591.329 251.192C592.304 251.192 593.215 251.867 593.526 252.932C596.278 262.293 602.084 270.528 607.698 278.494C614.088 287.558 620.696 296.931 623.256 308.332C624.079 312.003 624.436 315.703 624.438 319.379C624.441 328.377 622.308 337.234 619.654 345.156C618.647 348.16 617.566 351.029 616.495 353.722C615.488 356.26 614.44 358.791 613.391 361.327C611.277 366.435 609.143 371.626 607.329 376.91C623.316 366.674 636.871 352.375 646.747 335.225C647.183 334.466 647.932 334.049 648.698 334.049C649.116 334.049 649.54 334.173 649.921 334.432C650.619 334.909 651.002 335.728 651 336.564C650.998 337.017 650.885 337.476 650.647 337.889C640.311 355.842 626.096 370.8 609.325 381.457C607.956 382.327 606.568 383.169 605.164 383.982C604.148 387.76 603.353 391.583 602.958 395.466C602.74 397.613 602.639 399.752 602.639 401.881C602.651 421.115 611.073 439.365 617.727 451.883C619.775 455.734 621.946 459.579 624.1 463.367C646.592 445.517 662.655 418.424 668.245 388.731C668.471 387.541 669.428 386.728 670.505 386.728C670.657 386.728 670.811 386.745 670.966 386.778C672.056 387.022 672.807 388.067 672.807 389.234C672.807 389.401 672.792 389.57 672.759 389.739C666.914 420.767 650.086 449.073 626.531 467.65C627.77 469.822 629.012 472.007 630.242 474.212C628.95 474.429 627.656 474.546 626.363 474.546Z" fill="#DC7809"/>
<path d="M621.981 483.204C618.768 483.204 615.57 482.701 612.425 481.559C595.929 475.572 586.003 453.59 568.656 452.262C568.137 452.222 567.62 452.202 567.107 452.202C556.594 452.202 547.148 460.338 540.981 469.773C540.58 470.385 540.192 471.002 539.809 471.624C533.884 467.458 528.497 463.016 526.835 455.813C526.677 455.128 526.571 454.451 526.491 453.778C534.681 443.939 546.329 437.53 558.493 436.373C559.848 436.244 561.206 436.18 562.565 436.18C575.092 436.18 587.593 441.59 596.614 451.079C604.22 459.078 610.047 470.205 620.162 473.565C621.759 474.095 623.378 474.397 625.008 474.503C626.475 477.105 627.934 479.73 629.356 482.381C626.901 482.91 624.438 483.204 621.981 483.204ZM634.005 481.111C632.775 478.789 631.514 476.49 630.242 474.212C630.627 474.145 631.014 474.071 631.399 473.988C631.926 474.656 632.451 475.323 632.975 475.99C634.082 477.405 635.186 478.844 636.274 480.307C635.52 480.593 634.765 480.862 634.005 481.111Z" fill="#D59D2A"/>
<path d="M636.274 480.307C635.186 478.844 634.082 477.405 632.975 475.99C632.451 475.323 631.926 474.656 631.399 473.988C636.647 472.858 641.777 470.126 646.277 466.893C653.991 461.348 660.825 454.242 669.211 450.01C674.651 447.266 680.637 445.916 686.628 445.916C694.923 445.916 703.227 448.501 710.112 453.548C716.832 458.474 722.066 465.651 725.214 473.772C717.959 462.186 706.991 453.824 694.252 453.434C693.918 453.424 693.587 453.419 693.257 453.419C678.979 453.419 666.202 462.794 653.917 470.877C648.405 474.504 642.425 477.976 636.274 480.307Z" fill="#DBB138"/>
<path d="M629.356 482.381C627.934 479.73 626.475 477.105 625.008 474.503C625.459 474.533 625.91 474.546 626.363 474.546C627.656 474.546 628.95 474.429 630.242 474.212C631.514 476.49 632.775 478.789 634.005 481.111C632.463 481.617 630.911 482.047 629.356 482.381Z" fill="#C66C08"/>
<path d="M525.1 481.632C518.282 461.478 509.265 440.49 495.604 425.674C483.472 412.514 462.638 421.107 461.941 439.738C461.755 444.69 462.187 449.691 463.166 454.467C466.392 470.176 474.577 484.06 482.615 497.57C491.479 512.47 512.257 553.272 532.651 548.628C552.054 544.209 529.403 494.346 525.1 481.632Z" fill="#6F8B76"/>
<path d="M448.95 518.614C431.73 508.144 412.335 498.593 393.11 497.024C376.032 495.628 365.349 516.91 375.955 531.553C378.773 535.443 382.091 538.937 385.69 541.869C397.527 551.515 412.038 556.256 426.218 560.817C441.854 565.851 482.015 582.11 494.726 564.133C506.816 547.031 459.816 525.219 448.95 518.614Z" fill="#6F8B76"/>
<path d="M510.72 533.034C503.215 511.698 479.916 483.985 473.18 474.26C470.757 470.761 468.261 467.259 465.691 463.789C464.674 460.748 463.819 457.645 463.166 454.467C462.333 450.4 461.895 446.171 461.9 441.946C461.9 441.209 461.914 440.473 461.941 439.738C462.406 427.295 471.851 419.331 481.689 419.331C486.582 419.331 491.574 421.304 495.604 425.674C509.265 440.49 518.282 461.478 525.1 481.632C525.994 484.272 527.678 488.515 529.613 493.62C526.513 501.792 523.651 510.123 519.957 517.972C519.427 519.099 518.868 520.222 518.283 521.335C515.114 514.363 512.03 507.328 509.027 500.244L509.133 500.043L517.186 477.475C517.646 476.183 517.058 474.73 515.871 474.228C515.598 474.113 515.316 474.058 515.038 474.058C514.115 474.058 513.244 474.666 512.891 475.659L506.378 493.914C502.767 485.212 499.285 476.443 495.948 467.622C496.027 467.475 496.116 467.336 496.168 467.169L502.23 447.638C502.638 446.326 501.99 444.903 500.786 444.46C500.542 444.37 500.293 444.327 500.049 444.327C499.088 444.327 498.191 444.987 497.867 446.032L493.34 460.617C491.299 455.084 489.3 449.541 487.375 443.979C487.026 442.978 486.154 442.356 485.222 442.356C484.952 442.356 484.676 442.408 484.407 442.518C483.217 443.006 482.617 444.454 483.065 445.749C486.751 456.4 490.657 467.01 494.757 477.542L479.724 469.07C479.386 468.879 479.025 468.79 478.669 468.79C477.835 468.79 477.031 469.284 476.621 470.145C476.036 471.373 476.478 472.886 477.607 473.523L495.778 483.764C496.117 483.954 496.478 484.045 496.836 484.045C496.994 484.045 497.149 484.011 497.302 483.976C502.999 498.288 509.043 512.445 515.421 526.337C513.975 528.666 512.406 530.914 510.72 533.034Z" fill="#596F5E"/>
<path d="M405.914 553.606C398.731 550.578 391.848 546.887 385.69 541.869C382.091 538.937 378.773 535.443 375.955 531.553C373.035 527.522 371.729 522.989 371.725 518.564C371.715 507.417 379.967 496.959 391.52 496.959C392.043 496.959 392.574 496.98 393.11 497.024C399.425 497.54 405.759 498.916 412.028 500.904C416.099 504.877 420.274 508.736 424.424 512.562C431.31 518.913 442.385 530.085 454.733 539.972C450.673 538.275 446.557 536.847 442.285 536.25C440.824 536.045 439.367 535.946 437.923 535.946C434.839 535.946 431.805 536.399 428.863 537.243C427.4 536.531 425.941 535.809 424.487 535.078C424.426 534.789 424.324 534.507 424.165 534.244L410.012 511.155C409.568 510.431 408.837 510.041 408.092 510.041C407.653 510.041 407.208 510.177 406.817 510.461C405.759 511.23 405.473 512.788 406.179 513.94L416.654 531.03C413.485 529.35 410.328 527.641 407.202 525.881C406.863 525.688 406.5 525.598 406.144 525.598C405.31 525.598 404.507 526.093 404.097 526.954C403.512 528.184 403.955 529.697 405.085 530.334C410.859 533.587 416.72 536.688 422.642 539.659C421.545 540.201 420.466 540.794 419.408 541.438C418.493 541.449 417.578 541.454 416.664 541.454C412.738 541.454 408.819 541.349 404.917 541.128C404.877 541.125 404.836 541.125 404.797 541.125C403.574 541.125 402.56 542.161 402.497 543.504C402.431 544.886 403.408 546.065 404.678 546.137C407.332 546.286 409.993 546.388 412.66 546.439C410.239 548.582 407.977 550.991 405.914 553.606Z" fill="#596F5E"/>
<path d="M473.18 474.26C457.289 451.318 438.283 428.228 415.527 415.005C395.31 403.256 371.681 423.031 377.403 447.19C378.925 453.61 381.252 459.837 384.205 465.541C393.915 484.307 409.328 498.642 424.424 512.562C441.069 527.913 482.171 571.428 506.644 556.891C529.925 543.062 483.206 488.734 473.18 474.26Z" fill="#6F8B76"/>
<path d="M494.499 546.461C482.899 541.22 473.897 530.436 466.567 521.653L466.128 521.128C465.635 521.136 465.142 521.151 464.651 521.151C450.986 521.151 437.274 517.97 424.813 511.889C423.652 511.32 423.133 509.837 423.653 508.574C424.037 507.642 424.877 507.092 425.758 507.092C426.072 507.092 426.391 507.163 426.697 507.31C437.738 512.701 449.804 515.693 461.92 516.085L437.733 487.104L404.486 482.44C403.224 482.264 402.332 481.007 402.496 479.635C402.645 478.374 403.631 477.445 404.764 477.445C404.867 477.445 404.969 477.451 405.074 477.468L432.953 481.38L399.706 441.545C398.849 440.519 398.92 438.934 399.861 438.001C400.303 437.566 400.858 437.351 401.41 437.351C402.037 437.351 402.66 437.627 403.115 438.172L425.649 465.17L424.77 440.251C424.722 438.867 425.712 437.703 426.984 437.648C427.022 437.647 427.06 437.645 427.099 437.645C428.324 437.645 429.327 438.716 429.373 440.059L430.369 468.289C430.392 468.981 430.157 469.62 429.755 470.091L454.731 500.014C456.01 489.023 455.046 477.749 451.849 467.226C451.448 465.912 452.104 464.492 453.312 464.058C453.553 463.971 453.798 463.929 454.039 463.929C455.003 463.929 455.903 464.598 456.222 465.651C459.931 477.859 460.862 491.017 458.916 503.704C458.864 504.047 458.74 504.351 458.58 504.627L468.252 516.215C468.984 516.484 469.561 517.163 469.747 518.007L469.977 518.281C477.871 527.741 486.821 538.464 498.54 542.758C498.979 542.92 499.343 543.21 499.61 543.577C497.966 544.689 496.26 545.657 494.499 546.461Z" fill="#596F5E"/>
<path d="M515.421 526.337C509.043 512.445 502.999 498.288 497.302 483.976C497.149 484.011 496.994 484.045 496.836 484.045C496.478 484.045 496.117 483.954 495.778 483.764L477.607 473.523C476.478 472.886 476.036 471.373 476.621 470.144C477.031 469.284 477.835 468.79 478.669 468.79C479.025 468.79 479.386 468.879 479.724 469.07L494.757 477.542C490.657 467.01 486.751 456.4 483.065 445.749C482.617 444.454 483.217 443.006 484.407 442.518C484.675 442.408 484.952 442.356 485.222 442.356C486.154 442.356 487.026 442.978 487.375 443.979C489.3 449.541 491.299 455.084 493.34 460.617L497.867 446.032C498.191 444.987 499.088 444.327 500.049 444.327C500.293 444.327 500.542 444.37 500.786 444.46C501.99 444.903 502.638 446.326 502.229 447.638L496.168 467.169C496.116 467.336 496.027 467.475 495.948 467.622C499.285 476.443 502.767 485.212 506.378 493.914L512.891 475.659C513.244 474.666 514.115 474.058 515.038 474.058C515.315 474.058 515.598 474.113 515.871 474.228C517.058 474.73 517.646 476.183 517.186 477.475L509.133 500.043L509.027 500.243C512.03 507.328 515.114 514.363 518.283 521.335C517.393 523.029 516.436 524.702 515.421 526.337Z" fill="#47594B"/>
<path d="M412.66 546.439C409.993 546.387 407.332 546.285 404.678 546.137C403.408 546.065 402.431 544.886 402.498 543.504C402.56 542.161 403.574 541.125 404.798 541.125C404.836 541.125 404.877 541.125 404.917 541.128C408.819 541.349 412.738 541.454 416.664 541.454C417.578 541.454 418.493 541.449 419.408 541.438C417.05 542.872 414.793 544.552 412.66 546.439ZM422.642 539.659C416.72 536.688 410.859 533.587 405.085 530.334C403.955 529.697 403.512 528.184 404.097 526.954C404.507 526.093 405.31 525.598 406.144 525.598C406.5 525.598 406.863 525.688 407.202 525.881C410.328 527.641 413.485 529.349 416.654 531.03L406.179 513.94C405.473 512.788 405.759 511.23 406.817 510.461C407.208 510.177 407.653 510.041 408.092 510.041C408.837 510.041 409.568 510.431 410.012 511.155L424.165 534.244C424.324 534.507 424.426 534.789 424.487 535.078C425.941 535.809 427.4 536.531 428.863 537.243C426.737 537.852 424.661 538.664 422.642 539.659Z" fill="#47594B"/>
<path d="M694.252 453.434C679.57 452.983 666.487 462.607 653.917 470.877C641.349 479.147 626.359 486.616 612.425 481.559C595.929 475.572 586.003 453.59 568.656 452.262C557.526 451.41 547.45 459.877 540.981 469.773C531.489 484.292 527.42 502.112 519.957 517.972C512.497 533.833 499.424 548.892 483.059 549.096C468.83 549.275 456.402 538.223 442.285 536.25C420.575 533.213 400.531 553.395 394.655 576.352C391.596 588.304 391.51 600.681 393.069 613H615.674C634.016 587.085 653.839 563.175 679.745 546.924C696.504 536.409 714.351 529.946 732.889 525.973C734.518 517.245 735.134 508.39 734.153 499.496C731.638 476.651 715.377 454.081 694.252 453.434Z" fill="#6BABAD"/>
<path d="M561.555 522.908C550.794 522.908 550.812 504.729 561.555 504.729C572.317 504.729 572.298 522.908 561.555 522.908Z" fill="#5FA0A2"/>
<path d="M588.972 531.73C586.712 531.73 584.704 530.699 583.07 529.067C581.43 527.427 580.723 524.99 580.624 522.639C580.531 520.376 581.622 517.788 583.07 516.21C584.584 514.563 586.833 513.55 588.972 513.55C591.235 513.55 593.244 514.578 594.877 516.21C596.517 517.85 597.225 520.287 597.322 522.639C597.417 524.904 596.325 527.491 594.877 529.067C593.363 530.714 591.114 531.73 588.972 531.73Z" fill="#5FA0A2"/>
<path d="M548.469 565.599C539.378 565.599 539.393 550.241 548.469 550.241C557.561 550.241 557.546 565.599 548.469 565.599Z" fill="#5FA0A2"/>
<path d="M579.626 585.564C568.587 585.564 568.605 566.915 579.626 566.915C590.666 566.915 590.647 585.564 579.626 585.564Z" fill="#5FA0A2"/>
<path d="M625.74 550.567C617.575 550.567 617.589 536.775 625.74 536.775C633.904 536.775 633.89 550.567 625.74 550.567Z" fill="#5FA0A2"/>
<path d="M693.04 509.552C689.88 509.552 687.077 508.114 684.795 505.834C682.506 503.543 681.516 500.14 681.38 496.857C681.319 495.108 681.655 493.478 682.385 491.967C682.854 490.392 683.658 489.031 684.795 487.88C686.911 485.578 690.049 484.163 693.04 484.163C696.199 484.163 699.004 485.601 701.284 487.88C703.573 490.168 704.565 493.573 704.7 496.857C704.76 498.604 704.425 500.235 703.694 501.748C703.226 503.321 702.421 504.684 701.284 505.834C699.169 508.134 696.03 509.552 693.04 509.552Z" fill="#5FA0A2"/>
<path d="M643.188 507.171C641.296 507.171 639.617 506.312 638.25 504.944C636.881 503.575 636.288 501.536 636.207 499.57C636.128 497.677 637.04 495.514 638.25 494.197C639.517 492.816 641.398 491.969 643.188 491.969C645.079 491.969 646.758 492.831 648.124 494.197C649.494 495.566 650.088 497.606 650.169 499.57C650.248 501.464 649.336 503.627 648.124 504.944C646.859 506.323 644.978 507.171 643.188 507.171Z" fill="#5FA0A2"/>
<path d="M656.713 532.355C654.728 532.355 652.905 530.804 652.162 528.883C651.335 526.75 651.8 524.406 653.233 522.72L653.334 522.602C654.23 521.544 655.565 521.014 656.897 521.014C658.23 521.014 659.563 521.544 660.461 522.602L660.561 522.72C662.13 524.567 662.571 527.325 661.372 529.557C660.44 531.292 658.705 532.263 656.897 532.352C656.836 532.355 656.775 532.355 656.713 532.355Z" fill="#5FA0A2"/>
<path d="M573.394 490.23C570.798 490.23 570.802 485.842 573.394 485.842C575.992 485.842 575.987 490.23 573.394 490.23Z" fill="#5FA0A2"/>
<path d="M506.155 576.027C504.509 576.025 502.867 575.122 501.932 573.461L501.781 573.196C500.648 571.182 501.115 568.598 502.526 566.924C503.361 565.933 504.643 565.425 505.907 565.425C506.754 565.425 507.593 565.654 508.287 566.115L508.529 566.277C511.173 568.041 511.717 572.115 509.506 574.522C508.567 575.543 507.361 576.027 506.155 576.027Z" fill="#5FA0A2"/>
<path d="M531.323 604.961C528.66 604.961 526.217 603.352 524.635 601.122C524.321 600.8 524.069 600.43 523.88 600.018C523.244 598.931 522.899 597.757 522.847 596.495C522.566 594.225 522.965 592.371 523.938 590.331C525.423 587.218 528.589 585.56 531.727 585.56C534.049 585.56 536.355 586.466 537.955 588.365C539.558 590.266 540.568 592.603 540.568 595.236C540.568 597.727 539.573 600.345 537.955 602.107C536.247 603.968 534.012 604.837 531.644 604.952C531.537 604.959 531.429 604.961 531.323 604.961Z" fill="#5FA0A2"/>
<path d="M473.183 602.438C471.769 602.438 470.332 601.869 469.204 600.735L469.007 600.539C467.178 598.7 467.045 595.604 468.152 593.32C469.088 591.391 471.054 590.423 472.982 590.423C473.438 590.423 473.891 590.477 474.33 590.585L474.594 590.651C478.11 591.519 479.647 596.274 477.908 599.513C476.86 601.462 475.039 602.438 473.183 602.438Z" fill="#5FA0A2"/>
<path d="M443.157 570.034C441.831 570.034 440.653 569.429 439.697 568.473C438.519 567.297 437.846 564.958 438.438 563.288L438.582 562.88C439.018 561.645 439.634 560.44 440.762 559.793C441.507 559.363 442.314 559.127 443.157 559.088C443.206 559.084 443.256 559.084 443.306 559.084C444.295 559.084 445.268 559.556 446.032 560.196C446.896 560.924 447.347 561.796 447.731 562.88L447.876 563.288C448.485 565.014 447.759 567.231 446.618 568.473C445.731 569.438 444.412 570.034 443.157 570.034Z" fill="#5FA0A2"/>
<path d="M416.81 597.123C415.671 597.123 414.547 596.58 413.67 595.841C412.677 595.007 412.143 593.999 411.71 592.749L411.567 592.339C410.881 590.348 411.694 587.823 413.013 586.388C414.031 585.28 415.544 584.597 416.984 584.597C418.505 584.597 419.856 585.292 420.956 586.388C422.315 587.746 423.067 590.412 422.401 592.339L422.258 592.749C421.768 594.168 421.036 595.564 419.746 596.308C418.886 596.801 417.956 597.072 416.984 597.12C416.925 597.123 416.869 597.123 416.81 597.123Z" fill="#5FA0A2"/>
</g>
</g>
<defs>
<clipPath id="clip0_1_2">
<rect width="883" height="613" fill="white"/>
</clipPath>
</defs>
</svg>
